<?xml version="1.0" encoding="utf-8"?>
<!-- Generator: Adobe Illustrator 19.0.0, SVG Export Plug-In . SVG Version: 6.00 Build 0)  -->
<svg version="1.1" id="Layer_1" xmlns="http://www.w3.org/2000/svg" xmlns:xlink="http://www.w3.org/1999/xlink" x="0px" y="0px"
	 viewBox="0 0 500 500" style="enable-background:new 0 0 500 500;" xml:space="preserve">
<style type="text/css">
	.st0{fill:#D00D2D;}
	.st1{fill:#FFFFFF;}
</style>
<g id="XMLID_1_">
	<path id="XMLID_3_" class="st0" d="M250,431.4c100.8,0,182.5-81.2,182.5-181.4c0-100.1-81.7-181.4-182.5-181.4
		C149.2,68.6,67.5,149.8,67.5,250C67.5,350.2,149.2,431.4,250,431.4"/>
	<path id="XMLID_4_" class="st1" d="M250,422.7c96,0,173.8-77.3,173.8-172.7c0-95.4-77.8-172.7-173.8-172.7
		c-96,0-173.8,77.3-173.8,172.7C76.2,345.4,154,422.7,250,422.7"/>
	<path id="XMLID_5_" class="st0" d="M250,414.6c91.4,0,165.6-73.7,165.6-164.5c0-90.9-74.1-164.5-165.6-164.5
		c-91.4,0-165.6,73.7-165.6,164.5C84.4,340.9,158.6,414.6,250,414.6"/>
	<path id="XMLID_6_" class="st1" d="M250,412c90,0,163-72.5,163-162c0-89.5-73-162-163-162c-90,0-163,72.5-163,162S160,412,250,412"
		/>
	<path id="XMLID_7_" class="st0" d="M292.7,92.3c-2.2,1.8-4.5,3.4-7,5c-26.7,16.7-60.1,14.4-83.9-3.3l-0.3,0c-0.9,2.7-2,5.3-3.3,7.9
		c-13.6,28.3-43.1,44-72.8,41.7l-1,1.1c0.7,2.7,1.2,5.5,1.5,8.4c3.9,31.1-12.4,60.2-38.7,74.1l-0.3,1.8c2.1,1.9,4,4,5.9,6.2
		c20.2,24.1,22.4,57.2,7.9,83.1l0.5,1.3c2.8,0.5,5.6,1.2,8.3,2.1c30.1,9.4,49.9,36.2,51.7,65.8l3.5,2.2c2.6-1.1,5.3-2,8.1-2.8
		c30.4-8.7,61.7,2.8,79.7,26.4l2.5,0c1.6-2.3,3.4-4.6,5.3-6.8c20.7-23.7,53.3-31.1,81.3-21l1.4-0.8c0.1-2.8,0.3-5.7,0.7-8.5
		c4.5-31.1,27.9-54.8,57-61.3l0.2-0.2c-1.4-2.4-2.8-5-3.9-7.6c-12.8-28.7-5.8-61.1,15.3-82.1l-0.1-1c-2.5-1.3-5-2.7-7.4-4.3
		c-26.3-17.3-37.9-48.5-31.5-77.4l-2.1-2.4c-2.8,0.3-5.7,0.5-8.6,0.5c-31.6-0.2-58.4-19.9-69-47.6"/>
	<path id="XMLID_8_" class="st1" d="M109.4,250c0-77.2,62.9-139.7,140.6-139.7c77.6,0,140.6,62.6,140.6,139.7s-63,139.7-140.6,139.7
		C172.3,389.7,109.4,327.2,109.4,250"/>
	<path id="XMLID_9_" class="st0" d="M250,362.4c62.5,0,113.1-50.3,113.1-112.4S312.5,137.6,250,137.6
		c-62.5,0-113.1,50.3-113.1,112.4S187.5,362.4,250,362.4"/>
	<path id="XMLID_10_" class="st1" d="M250,140.6c-60.8,0-110.1,49-110.1,109.4H250"/>
	<path id="XMLID_11_" class="st1" d="M250,359.4c60.8,0,110.1-49,110.1-109.4H250"/>
	<path id="XMLID_12_" class="st1" d="M295.1,224.3c11.6,0,21-9.4,21-20.9c0-11.5-9.4-20.9-21-20.9s-21,9.4-21,20.9
		C274,214.9,283.4,224.3,295.1,224.3"/>
	<path id="XMLID_13_" class="st1" d="M295,151.9c0,11.3-0.4,23.3-2.9,28.2c2.1-0.3,4.3-0.2,6.4,0.1c-3.1-5.3-3.2-24.8-3.2-28.3"/>
	<path id="XMLID_14_" class="st1" d="M258.4,167c8,8,16.2,16.8,18,22c1.3-1.7,2.9-3.2,4.6-4.5c-5.9-1.6-19.9-15.2-22.4-17.7"/>
	<path id="XMLID_15_" class="st1" d="M251.8,203.4c11.4,0,14.9,0.4,19.8,2.9c-0.3-2.1-0.2-4.3,0.1-6.4c-5.3,3-16.3,3.2-19.9,3.2"/>
	<path id="XMLID_16_" class="st1" d="M258.4,239.8c8-8,16.9-16.1,22.1-17.9c-1.7-1.3-3.2-2.9-4.5-4.6c-1.6,5.9-15.4,19.7-17.9,22.2"
		/>
	<path id="XMLID_17_" class="st1" d="M295.1,247.3c0-11.3,0.4-15.7,2.9-20.6c-2.1,0.3-4.3,0.2-6.4-0.1c3.1,5.3,3.2,17.1,3.2,20.6"/>
	<path id="XMLID_18_" class="st1" d="M331.8,239.7c-8-8-16.3-16.7-18-21.9c-1.3,1.7-2.9,3.2-4.6,4.5c5.9,1.6,19.8,15.3,22.3,17.8"/>
	<path id="XMLID_19_" class="st1" d="M346.9,203.4c-11.3,0-23.4-0.4-28.4-2.9c0.3,2.1,0.2,4.3-0.1,6.4c5.3-3.1,24.9-3.2,28.4-3.2"/>
	<path id="XMLID_20_" class="st1" d="M326.6,171.9c-8,8-11.9,11.3-17.1,13c1.7,1.3,3.2,2.9,4.5,4.6c1.6-5.9,10.4-14.8,12.9-17.2"/>
	<polyline id="XMLID_21_" class="st1" points="288.3,177.6 285.4,166.6 285.3,166.5 285.2,166.6 288.2,177.6 288.3,177.7 
		288.3,177.6 	"/>
	<polyline id="XMLID_22_" class="st1" points="284.8,164.7 283.4,159.5 283.4,159.5 283.3,159.6 284.7,164.7 284.8,164.7 
		284.8,164.7 	"/>
	<polyline id="XMLID_23_" class="st1" points="288.3,177.6 285.4,166.6 285.3,166.5 285.2,166.6 288.2,177.6 288.3,177.7 
		288.3,177.6 	"/>
	<polyline id="XMLID_24_" class="st1" points="284.8,164.7 283.4,159.5 283.4,159.5 283.3,159.6 284.7,164.7 284.8,164.7 
		284.8,164.7 	"/>
	<polyline id="XMLID_25_" class="st1" points="281.8,180.2 276.1,170.3 276,170.3 276,170.4 281.7,180.3 281.8,180.3 281.8,180.2 	
		"/>
	<polyline id="XMLID_26_" class="st1" points="275.1,168.6 272.4,164 272.3,164 272.3,164.1 275,168.7 275.1,168.7 275.1,168.6 	"/>
	<polyline id="XMLID_27_" class="st1" points="271.9,189.9 262,184.2 261.9,184.2 261.9,184.3 271.9,190 272,190 271.9,189.9 	"/>
	<polyline id="XMLID_28_" class="st1" points="260.3,183.2 255.6,180.5 255.5,180.6 255.6,180.6 260.2,183.3 260.3,183.3 
		260.3,183.2 	"/>
	<polyline id="XMLID_29_" class="st1" points="271.9,189.9 262,184.2 261.9,184.2 261.9,184.3 271.9,190 272,190 271.9,189.9 	"/>
	<polyline id="XMLID_30_" class="st1" points="260.3,183.2 255.6,180.5 255.5,180.6 255.6,180.6 260.2,183.3 260.3,183.3 
		260.3,183.2 	"/>
	<polyline id="XMLID_31_" class="st1" points="269.2,196.3 258.1,193.3 258,193.4 258.1,193.5 269.2,196.4 269.2,196.4 269.2,196.3 
			"/>
	<polyline id="XMLID_32_" class="st1" points="256.2,192.8 251,191.5 250.9,191.5 251,191.6 256.1,192.9 256.2,192.9 256.2,192.8 	
		"/>
	<polyline id="XMLID_33_" class="st1" points="269.1,210.1 258,213 257.9,213.1 258,213.2 269.1,210.2 269.2,210.1 269.1,210.1 	"/>
	<polyline id="XMLID_34_" class="st1" points="256.1,213.6 250.9,214.9 250.9,215 250.9,215.1 256.1,213.7 256.1,213.6 256.1,213.6 
			"/>
	<polyline id="XMLID_35_" class="st1" points="269.1,210.1 258,213 257.9,213.1 258,213.2 269.1,210.2 269.2,210.1 269.1,210.1 	"/>
	<polyline id="XMLID_36_" class="st1" points="256.1,213.6 250.9,214.9 250.9,215 250.9,215.1 256.1,213.7 256.1,213.6 256.1,213.6 
			"/>
	<polyline id="XMLID_37_" class="st1" points="271.7,216.5 261.8,222.2 261.7,222.3 261.8,222.4 271.8,216.6 271.8,216.6 
		271.7,216.5 	"/>
	<polyline id="XMLID_38_" class="st1" points="260,223.2 255.4,225.9 255.4,226 255.5,226 260.1,223.3 260.1,223.3 260,223.2 	"/>
	<polyline id="XMLID_39_" class="st1" points="281.5,226.4 275.7,236.3 275.7,236.4 275.8,236.3 281.6,226.4 281.5,226.4 
		281.5,226.4 	"/>
	<polyline id="XMLID_40_" class="st1" points="274.7,238 272,242.6 272.1,242.7 272.1,242.6 274.8,238 274.8,238 274.7,238 	"/>
	<polyline id="XMLID_41_" class="st1" points="281.5,226.4 275.7,236.3 275.7,236.4 275.8,236.3 281.6,226.4 281.5,226.4 
		281.5,226.4 	"/>
	<polyline id="XMLID_42_" class="st1" points="274.7,238 272,242.6 272.1,242.7 272.1,242.6 274.8,238 274.8,238 274.7,238 	"/>
	<polyline id="XMLID_43_" class="st1" points="287.9,229.1 284.9,240.1 285,240.2 285.1,240.2 288,229.1 288,229 287.9,229.1 	"/>
	<polyline id="XMLID_44_" class="st1" points="284.4,242 283,247.2 283.1,247.2 283.2,247.2 284.5,242.1 284.5,242 284.4,242 	"/>
	<polyline id="XMLID_45_" class="st1" points="301.8,229.2 304.8,240.2 304.8,240.3 304.9,240.2 301.9,229.2 301.8,229.1 
		301.8,229.2 	"/>
	<polyline id="XMLID_46_" class="st1" points="305.3,242.1 306.7,247.3 306.7,247.3 306.8,247.2 305.4,242.1 305.3,242.1 
		305.3,242.1 	"/>
	<polyline id="XMLID_47_" class="st1" points="301.8,229.2 304.8,240.2 304.8,240.3 304.9,240.2 301.9,229.2 301.8,229.1 
		301.8,229.2 	"/>
	<polyline id="XMLID_48_" class="st1" points="305.3,242.1 306.7,247.3 306.7,247.3 306.8,247.2 305.4,242.1 305.3,242.1 
		305.3,242.1 	"/>
	<polyline id="XMLID_49_" class="st1" points="308.3,226.6 314,236.5 314.1,236.5 314.1,236.4 308.4,226.5 308.3,226.5 308.3,226.6 
			"/>
	<polyline id="XMLID_50_" class="st1" points="315,238.2 317.7,242.8 317.8,242.8 317.8,242.7 315.1,238.1 315,238.1 315,238.2 	"/>
	<polyline id="XMLID_51_" class="st1" points="318.2,216.9 328.1,222.6 328.2,222.6 328.2,222.5 318.2,216.8 318.2,216.8 
		318.2,216.9 	"/>
	<polyline id="XMLID_52_" class="st1" points="329.9,223.6 334.5,226.3 334.6,226.2 334.5,226.2 329.9,223.5 329.8,223.5 
		329.9,223.6 	"/>
	<polyline id="XMLID_53_" class="st1" points="318.2,216.9 328.1,222.6 328.2,222.6 328.2,222.5 318.2,216.8 318.2,216.8 
		318.2,216.9 	"/>
	<polyline id="XMLID_54_" class="st1" points="329.9,223.6 334.5,226.3 334.6,226.2 334.5,226.2 329.9,223.5 329.8,223.5 
		329.9,223.6 	"/>
	<polyline id="XMLID_55_" class="st1" points="320.9,210.5 332,213.5 332.1,213.4 332,213.3 320.9,210.4 320.9,210.4 320.9,210.5 	
		"/>
	<polyline id="XMLID_56_" class="st1" points="333.9,214 339.1,215.3 339.2,215.3 339.1,215.2 334,213.8 333.9,213.9 333.9,214 	"/>
	<polyline id="XMLID_57_" class="st1" points="321,196.7 332.1,193.8 332.2,193.7 332.1,193.6 321,196.6 320.9,196.7 321,196.7 	"/>
	<polyline id="XMLID_58_" class="st1" points="334,193.2 339.2,191.9 339.2,191.8 339.2,191.7 334,193.1 334,193.2 334,193.2 	"/>
	<polyline id="XMLID_59_" class="st1" points="321,196.7 332.1,193.8 332.2,193.7 332.1,193.6 321,196.6 320.9,196.7 321,196.7 	"/>
	<polyline id="XMLID_60_" class="st1" points="334,193.2 339.2,191.9 339.2,191.8 339.2,191.7 334,193.1 334,193.2 334,193.2 	"/>
	<polyline id="XMLID_61_" class="st1" points="318.4,190.3 328.3,184.6 328.4,184.5 328.3,184.4 318.3,190.2 318.3,190.2 
		318.4,190.3 	"/>
	<polyline id="XMLID_62_" class="st1" points="330.1,183.6 334.7,180.9 334.7,180.8 334.6,180.8 330,183.5 330,183.5 330.1,183.6 	
		"/>
	<polyline id="XMLID_63_" class="st1" points="308.7,180.4 314.4,170.5 314.4,170.4 314.3,170.5 308.5,180.4 308.6,180.4 
		308.7,180.4 	"/>
	<polyline id="XMLID_64_" class="st1" points="315.4,168.8 318.1,164.2 318,164.1 318,164.2 315.3,168.8 315.3,168.8 315.4,168.8 	
		"/>
	<polyline id="XMLID_65_" class="st1" points="308.7,180.4 314.4,170.5 314.4,170.4 314.3,170.5 308.5,180.4 308.6,180.4 
		308.7,180.4 	"/>
	<polyline id="XMLID_66_" class="st1" points="315.4,168.8 318.1,164.2 318,164.1 318,164.2 315.3,168.8 315.3,168.8 315.4,168.8 	
		"/>
	<polyline id="XMLID_67_" class="st1" points="302.2,177.7 305.2,166.7 305.1,166.6 305.1,166.6 302.1,177.7 302.1,177.8 
		302.2,177.7 	"/>
	<polyline id="XMLID_68_" class="st1" points="305.7,164.8 307.1,159.6 307,159.6 307,159.6 305.6,164.7 305.6,164.8 305.7,164.8 	
		"/>
	<path id="XMLID_69_" class="st0" d="M172.1,176.6h71.7v52.7h-8.9v-19.3h-2.7v-3.8h2.7c0-5.4-4.5-10.6-10.2-10.6
		s-10.2,5.2-10.2,10.6h2.7v3.8h-2.7v19.3h-14.8v-19.3h-2.7v-3.8h2.7c0-5.4-4.5-10.6-10.2-10.6c-5.6,0-10.2,5.2-10.2,10.6h2.7v3.8
		h-2.7v19.3h-14.8l0-19.3h-2.7v-3.8h2.7c0-4.4-3-8.6-7.1-10C160.5,189.9,167.4,181.4,172.1,176.6"/>
	<path id="XMLID_70_" class="st1" d="M181,301.6c-3.6-2.7-6.3-7.8-10.9-7.1c-3.3,0.5-6.3,5.1-3.9,7.2c6,5.5,13.8,11.2,19.4,17.3
		c-1.4-2.5-1.3-5,0.7-7.3c2.9-3.2,5.5-2,5.5-2C188.7,307.4,184.3,304.1,181,301.6"/>
	<path id="XMLID_71_" class="st1" d="M197,277.3c6.7,6.3,11.8,13.2,17.2,21.8c11.3-13.8,12.4-18.3,21.4-15.2
		c-7.1-4.9-13.8-10.4-21.6-14.3c-1.6-0.8-4.1-0.8-5.9,0C204,271.1,200,272.5,197,277.3"/>
	<path id="XMLID_72_" class="st1" d="M227.5,289.3c1.2-2.3,3.9-4.1,6.6-3.1c3.3,1.3,2.3,5-0.2,6.4c-1.7,0.9-4-0.7-3.4-2.2
		c0.2-0.5,0.7-0.9,1.3-0.8c-0.2,0.8-0.1,1.1,0.3,1.5c0.9,0.9,1.9-0.1,2.5-1.3c0.7-1.3-0.4-2.7-2.3-2.2c-2.5,0.6-3.8,2.6-3.4,5.4
		c0.1,0.8,1,1.5,1.7,1.7c4.8,1,9.1-4.2,6.3-8.1c-3-4.1-10.1-1.5-12.8,2.7c0,0,1.3,1.3,2.8,2.7C227,291.9,226.8,290.6,227.5,289.3"/>
	<path id="XMLID_73_" class="st1" d="M190.9,310.9c-1.4,0.1-3.3,0.9-4.1,2.9c-1.1,2.7-0.6,5.9,2.3,7.5c5.8,3.3,15.3-8.9,19.2-15.7
		c0,0-3.2-6.5-5.5-10.6c-2.8-4.9-5.5-9.1-9.5-13.6c-5.1,5.6-8.3,12.3-14.1,17.1c0.6,0.6,1.2,1.2,1.8,1.8c5.1,5,17.8,10.1,14.7,16.1
		c-1,1.9-3.3,3.5-5.5,2.6c-3.3-1.3-2.8-5.5,0.2-6.4c1.4-0.4,2.5,0.6,2,2c-0.4-0.4-1.7-0.7-2.2-0.2c-0.7,0.6-0.9,2,0.8,3.2
		c0.7,0.5,2.2,0.2,3-0.9c0.9-1.2,1.3-3.4-0.8-5C192.3,311,191.3,310.9,190.9,310.9"/>
	<path id="XMLID_74_" class="st1" d="M182.3,268.9l0.5-0.1c22.5,8.2,45.4,57.1,48.9,69.7l-0.9-0.3c-2.5-6.2-4.8-11-12.1-13.4
		C215.4,316.9,202.2,283.2,182.3,268.9"/>
	<path id="XMLID_75_" class="st0" d="M219.6,323.4c1.1,0.1,2.7,1.1,3.9,1.9l0.1,0l0-0.1c-1.2-0.8-2.8-1.8-3.9-1.9L219.6,323.4
		L219.6,323.4L219.6,323.4z"/>
	<path id="XMLID_76_" class="st0" d="M218.7,321c0.9,0.1,3.1,1.1,3.9,1.7l0.1,0l0-0.1c-0.8-0.7-3-1.7-3.9-1.8L218.7,321L218.7,321
		L218.7,321z"/>
	<path id="XMLID_77_" class="st0" d="M217.6,318.5c1.5,0.5,2.7,0.8,3.4,1.2l0.1,0l0-0.1c-0.7-0.5-1.9-0.8-3.4-1.2L217.6,318.5
		L217.6,318.5L217.6,318.5z"/>
	<path id="XMLID_78_" class="st0" d="M216.4,315.9c1.4,0.5,2.1,0.4,2.7,0.9l0.1,0l0-0.1c-0.7-0.5-1.4-0.5-2.8-0.9L216.4,315.9
		L216.4,315.9L216.4,315.9z"/>
	<path id="XMLID_79_" class="st0" d="M215.5,313.6c1,0.3,2.2,0.4,3.2,1l0.1,0l0-0.1c-1-0.6-2.3-0.7-3.2-1L215.5,313.6L215.5,313.6
		L215.5,313.6z"/>
	<path id="XMLID_80_" class="st0" d="M214.6,311c0.8,0,1.7,0.5,2.1,0.8l0.1,0l0-0.1c-0.4-0.2-1.3-0.8-2.2-0.8V311L214.6,311
		L214.6,311z"/>
	<path id="XMLID_81_" class="st0" d="M213.7,308.9c0.7,0.2,1.2,0.2,1.8,0.6l0.1,0l0-0.1c-0.6-0.4-1.1-0.5-1.8-0.6L213.7,308.9
		L213.7,308.9L213.7,308.9z"/>
	<path id="XMLID_82_" class="st0" d="M212,306.3c0.8,0.1,1.7,0.4,2.2,0.7l0.1,0l0-0.1c-0.5-0.3-1.5-0.6-2.2-0.7L212,306.3L212,306.3
		L212,306.3z"/>
	<path id="XMLID_83_" class="st0" d="M210.7,304c0.6,0.1,1,0.2,1.7,0.7l0.1,0l0-0.1c-0.7-0.5-1.1-0.5-1.7-0.7L210.7,304L210.7,304
		L210.7,304z"/>
	<path id="XMLID_84_" class="st0" d="M209.7,301.5c1,0.3,1.2,0.4,1.6,0.7l0.1,0l0-0.1c-0.4-0.2-0.6-0.4-1.6-0.7L209.7,301.5
		L209.7,301.5L209.7,301.5z"/>
	<path id="XMLID_85_" class="st0" d="M208.5,299.2c0.7,0.1,1,0.4,1.4,0.7l0.1,0l0-0.1c-0.4-0.2-0.7-0.6-1.4-0.7L208.5,299.2
		L208.5,299.2L208.5,299.2z"/>
	<path id="XMLID_86_" class="st0" d="M206.8,296.7c0.7,0.1,1.5,0.5,1.7,0.8l0.1,0l0-0.1c-0.3-0.3-1.1-0.6-1.8-0.8L206.8,296.7
		L206.8,296.7L206.8,296.7z"/>
	<path id="XMLID_87_" class="st0" d="M205.5,294.5c0.8,0.2,1.1,0.3,1.4,0.5l0.1,0l0-0.1c-0.4-0.2-0.7-0.4-1.5-0.5L205.5,294.5
		L205.5,294.5L205.5,294.5z"/>
	<path id="XMLID_88_" class="st0" d="M204,292.5c0.5,0.2,1.2,0.4,1.5,0.7l0.1,0l0-0.1c-0.4-0.3-1-0.5-1.5-0.7L204,292.5L204,292.5
		L204,292.5z"/>
	<path id="XMLID_89_" class="st0" d="M249.3,287.2c2.5-1.7,4.4-3,5.6-4c1.2-0.9,2.3,0.5,4.7-1.2c4.1-2.9,6-5.6,7.8-3.4
		c1.8,2.3,2.8,0.6,3.8-0.5c2.1-2.1,6.7-7,7.5-7c0.8,0,1.4,0.8,2.5,0.8c1.1,0,8.4-6.2,9.8-6.2c1.4,0,6.9,6.4,8.4,6.4
		c1.5,0,5.8-2.9,7.2-2.9c1.4,0,10.4,8.4,12.1,8.4c1.7,0,19.2-7,20.4-7c1.2,0,14.7,9,15.8,10.2c1.1,1.2-0.8,0.6-1.5,0.2
		c-6-4-11-4.3-12.3-5.6c-1.2-1.4-1.7-4.1-5.2,0c-3.5,4.1-3.1,7.9,1.8,11c4.9,3.1,10.3,6,11,10.2c0.2,0.9-0.8,0.5-1.1-0.3
		c-0.3-0.8-4.4-5.9-10.3-7c-5.8-1.1-6.6-4.7-13.2-4.7c-6.6,0-9.2-3.7-10.7-3.7c-1.5,0-2.6-1.1,0.6-1.1c3.2,0,3.1-0.3,1.7-1.4
		c-1.4-1.1-7.7-7.3-8.9-7.2c-1.2,0.2-2.8,6.6-2.3,11.4c-3.1-4.7-10-15.3-14.6-14.9c-1.8,0.2-1.8,5.6-1.4,8.5c-1.8-1.2-4-3.5-4,1.5
		c0,5,4.1,1.7,3.4,14.9c-2-4.7-2.5-5.6-7.7-6.9c-5.2-1.2-7.2-1.5-9.2-3.3c-2-1.8-4-4.4-8.6,1.5c-4.6,5.9-6.4,7.6-1.4,7.5
		c5.1-0.2-0.8,4-4,6.9c-2,1.8-3,5.1,1.8,0.3c2.1-2.1,3.4,0.6,6.3-1.5c2.9-2.1,3.5-1.7,5.1-1.8c-2.1,5-10.9,11.7-10.1,12.9
		c0.8,1.2,11.5-4.9,15.6-8.2c5.8-0.9,21.9-7.2,27.4-9.8c3.2,0.9,6.4,1.4,8.1,2.1c1.7,0.8,4.7,4.9,14.7,1.2c4.1,2.1,4.7,3.3,13.6,7.2
		c-4.7-0.3-10.4-2.4-13.8-4.9c-3.4,3.3-2.8,6.2,4.3,13.7c-6.9-2.6-8.3-6.6-10.9-9.3c-2.6-2.7-5.3-1.5-8.1-4.9
		c-2.1-2.6-6.4-3.1-8.4-3.1c-2,0-10.6,6.6-12.1,9.1c6.4-0.6,9-2.1,11.9-2c-4.7,3.5-10.9,8.4-14.4,9.8c-3.5,1.4-9.7,7.2-10.7,9.9
		c4.6,0.2,9.2,0.9,8.9,2.7c-0.3,1.8-4.4,3.8-8.9,4.3c-0.6,0.1-1.5,0.4-1.8,0c-1-1.2-0.5-3.2-1.7-4.3c-0.4-0.4-0.9,0.2-1.3,0.5
		c-0.7,0.5,0.1,1.4-0.1,1.9c-0.2,0.7-1.2,1.3-2,1.5c-0.6,0.1-1-0.7-1.3-1.2c-0.4-0.6-0.4,0.9-1.1,0.8c-0.6-0.1-0.8-0.7-1-1.2
		c-0.1-0.2,0.4-0.6,0-0.7c-1-0.3-1.1,1-1.3,1.8c-0.1,0.6-1.3,0.3-1.3,0.9c0,0.7,1.3,0.1,1.2,0.9c0,0.3-0.6,0.3-0.6,0.5
		c-0.2,0.7-0.6,1.4-1.2,1.9c-0.6,0.5-1.3,0.3-2,0.2c-0.3-0.1-0.3,0.8-0.5,1c-0.7,0.7-1.6,1.1-2,1.9c-0.1,0.2-0.1,0.7-0.3,0.8
		c-1,0.8-1.4,1.9-2.1,2.8c1.1-6.6,3.9-6.9,6.4-10.9c2.5-4,6.5-9.2,4.8-11.9c-2.3-3.7-13.5,4.3-14.6,1.2c-1.1-3,0.5-1.2,1.4-0.6
		c0.9,0.6,1.4-1.7-0.9-1.8c-2.3-0.2-4.4,1.8-5,4.1"/>
	<path id="XMLID_90_" class="st0" d="M265.8,305.9c0.4,0,0.8-0.2,0.8-0.5c0-0.3-0.3-0.5-0.8-0.5c-0.4,0-0.8,0.2-0.8,0.5
		C265,305.7,265.4,305.9,265.8,305.9"/>
	<path id="XMLID_91_" class="st0" d="M268.6,302.7c0.4,0,0.7-0.1,0.7-0.3c0-0.2-0.3-0.3-0.7-0.3c-0.4,0-0.8,0.1-0.8,0.3
		C267.9,302.6,268.2,302.7,268.6,302.7"/>
	<path id="XMLID_92_" class="st0" d="M272.1,299.9c0.5,0,1-0.2,1-0.3c0-0.2-0.4-0.3-1-0.3s-1,0.2-1,0.3
		C271.2,299.7,271.6,299.9,272.1,299.9"/>
	<path id="XMLID_93_" class="st0" d="M275.2,297.9c0.2,0,0.3-0.4,0.3-0.9s-0.1-0.9-0.3-0.9c-0.2,0-0.3,0.4-0.3,0.9
		C274.9,297.5,275,297.9,275.2,297.9"/>
	<path id="XMLID_94_" class="st0" d="M274.7,294.3c0.3,0,0.6-0.2,0.6-0.4c0-0.2-0.2-0.4-0.6-0.4c-0.3,0-0.5,0.2-0.5,0.4
		S274.5,294.3,274.7,294.3"/>
	<path id="XMLID_95_" class="st0" d="M270.5,292.7c0.3,0,0.6-0.1,0.6-0.3c0-0.2-0.2-0.3-0.6-0.3c-0.3,0-0.5,0.2-0.5,0.3
		C269.9,292.5,270.2,292.7,270.5,292.7"/>
	<path id="XMLID_96_" class="st0" d="M265.6,295.1c0.3,0,0.5-0.2,0.5-0.4c0-0.2-0.2-0.4-0.5-0.4c-0.3,0-0.5,0.2-0.5,0.4
		C265,294.9,265.3,295.1,265.6,295.1"/>
	<path id="XMLID_97_" class="st0" d="M268.4,289.1c0.4,0,0.6-0.2,0.6-0.5c0-0.3-0.3-0.5-0.6-0.5c-0.4,0-0.7,0.2-0.7,0.5
		C267.7,288.9,268,289.1,268.4,289.1"/>
	<path id="XMLID_98_" class="st0" d="M278.7,296c0.4,0,0.8-0.2,0.8-0.4c0-0.2-0.3-0.4-0.8-0.4c-0.4,0-0.8,0.2-0.8,0.4
		C278,295.9,278.3,296,278.7,296"/>
	<path id="XMLID_99_" class="st0" d="M279.3,298.6c0.4,0,0.6-0.3,0.6-0.7c0-0.3-0.3-0.6-0.6-0.6c-0.4,0-0.7,0.3-0.7,0.6
		C278.6,298.3,278.9,298.6,279.3,298.6"/>
	<path id="XMLID_100_" class="st0" d="M276.2,299.7c0.4,0,0.7-0.2,0.7-0.5c0-0.3-0.3-0.5-0.7-0.5c-0.4,0-0.6,0.2-0.6,0.5
		C275.6,299.4,275.8,299.7,276.2,299.7"/>
	<path id="XMLID_101_" class="st0" d="M273.2,302.2c0.4,0,0.7-0.2,0.7-0.5c0-0.3-0.3-0.5-0.7-0.5c-0.4,0-0.8,0.2-0.8,0.5
		C272.5,301.9,272.8,302.2,273.2,302.2"/>
	<path id="XMLID_102_" class="st0" d="M281.8,298.1c0.3,0,0.6-0.2,0.6-0.5c0-0.3-0.2-0.5-0.6-0.5c-0.3,0-0.5,0.2-0.5,0.5
		C281.3,297.8,281.5,298.1,281.8,298.1"/>
	<path id="XMLID_103_" class="st0" d="M284.3,296.7c0.4,0,0.6-0.3,0.6-0.6c0-0.4-0.3-0.7-0.6-0.7c-0.4,0-0.7,0.3-0.7,0.7
		C283.6,296.4,283.9,296.7,284.3,296.7"/>
	<path id="XMLID_104_" class="st0" d="M282.4,294.3c0.4,0,0.7-0.2,0.7-0.6c0-0.3-0.3-0.5-0.7-0.5c-0.4,0-0.8,0.2-0.8,0.5
		C281.7,294.1,282,294.3,282.4,294.3"/>
	<path id="XMLID_106_" class="st0" d="M281.5,290.3c0.2,0,0.3-0.2,0.3-0.4c0-0.2-0.2-0.4-0.3-0.4c-0.2,0-0.3,0.2-0.3,0.4
		C281.2,290.1,281.3,290.3,281.5,290.3"/>
	<path id="XMLID_107_" class="st0" d="M277.8,293.3c0.2,0,0.4-0.1,0.4-0.3c0-0.2-0.2-0.3-0.4-0.3c-0.2,0-0.4,0.1-0.4,0.3
		C277.4,293.1,277.6,293.3,277.8,293.3"/>
	<path id="XMLID_108_" class="st0" d="M285.2,291.8c0.2,0,0.4-0.2,0.4-0.4c0-0.2-0.2-0.4-0.4-0.4c-0.2,0-0.4,0.2-0.4,0.4
		C284.7,291.6,284.9,291.8,285.2,291.8"/>
	<path id="XMLID_112_" class="st0" d="M286.1,294c0.2,0,0.4-0.2,0.4-0.4c0-0.2-0.2-0.4-0.4-0.4c-0.2,0-0.4,0.2-0.4,0.4
		C285.7,293.8,285.9,294,286.1,294"/>
	<path id="XMLID_113_" class="st0" d="M286.9,296.2c0.2,0,0.3-0.2,0.3-0.5c0-0.3-0.1-0.5-0.3-0.5c-0.2,0-0.3,0.2-0.3,0.5
		C286.6,296,286.8,296.2,286.9,296.2"/>
	<path id="XMLID_114_" class="st0" d="M294.9,289.8c0.3,0,0.5-0.2,0.5-0.4c0-0.2-0.2-0.4-0.5-0.4c-0.3,0-0.5,0.2-0.5,0.4
		C294.4,289.6,294.6,289.8,294.9,289.8"/>
	<path id="XMLID_115_" class="st0" d="M292.6,291.3c0.3,0,0.5-0.2,0.5-0.5c0-0.3-0.2-0.5-0.5-0.5c-0.3,0-0.5,0.2-0.5,0.5
		C292.1,291,292.3,291.3,292.6,291.3"/>
	<path id="XMLID_116_" class="st0" d="M291.6,293.3c0.3,0,0.5-0.2,0.5-0.4c0-0.2-0.2-0.4-0.5-0.4c-0.3,0-0.5,0.2-0.5,0.4
		C291.1,293.1,291.3,293.3,291.6,293.3"/>
	<path id="XMLID_117_" class="st0" d="M291.5,288.9c0.2,0,0.4-0.2,0.4-0.3s-0.2-0.3-0.4-0.3c-0.2,0-0.4,0.2-0.4,0.3
		C291,288.8,291.2,288.9,291.5,288.9"/>
	<path id="XMLID_118_" class="st0" d="M296.1,286.9c0.3,0,0.5-0.2,0.5-0.4c0-0.2-0.2-0.4-0.5-0.4c-0.3,0-0.5,0.2-0.5,0.4
		C295.6,286.7,295.8,286.9,296.1,286.9"/>
	<path id="XMLID_119_" class="st0" d="M298.9,290.7c0.3,0,0.5-0.2,0.5-0.5c0-0.3-0.2-0.5-0.5-0.5c-0.3,0-0.6,0.2-0.6,0.5
		C298.3,290.4,298.6,290.7,298.9,290.7"/>
	<path id="XMLID_120_" class="st0" d="M297.4,291.8c0.2,0,0.4-0.2,0.4-0.4c0-0.2-0.2-0.4-0.4-0.4c-0.2,0-0.4,0.2-0.4,0.4
		C297,291.6,297.2,291.8,297.4,291.8"/>
	<path id="XMLID_121_" class="st0" d="M295,292.6c0.2,0,0.4-0.1,0.4-0.3c0-0.2-0.2-0.3-0.4-0.3c-0.2,0-0.4,0.1-0.4,0.3
		C294.5,292.4,294.7,292.6,295,292.6"/>
	<path id="XMLID_122_" class="st0" d="M293.1,293.9c0.2,0,0.4-0.2,0.4-0.4c0-0.2-0.2-0.4-0.4-0.4c-0.2,0-0.4,0.2-0.4,0.4
		C292.7,293.7,292.9,293.9,293.1,293.9"/>
	<path id="XMLID_123_" class="st0" d="M292.6,284.2c0.2,0,0.4-0.2,0.4-0.4c0-0.2-0.2-0.4-0.4-0.4c-0.2,0-0.4,0.2-0.4,0.4
		C292.2,284,292.4,284.2,292.6,284.2"/>
	<path id="XMLID_124_" class="st0" d="M298.7,282.6c0.3,0,0.5-0.2,0.5-0.4c0-0.2-0.2-0.4-0.5-0.4c-0.3,0-0.5,0.2-0.5,0.4
		C298.1,282.5,298.4,282.6,298.7,282.6"/>
	<path id="XMLID_125_" class="st0" d="M300.6,287.5c0.2,0,0.4-0.2,0.4-0.5c0-0.3-0.2-0.5-0.4-0.5c-0.2,0-0.4,0.2-0.4,0.5
		C300.1,287.3,300.3,287.5,300.6,287.5"/>
	<path id="XMLID_126_" class="st0" d="M303.1,290.4c0.3,0,0.5-0.2,0.5-0.5c0-0.3-0.2-0.5-0.5-0.5c-0.3,0-0.5,0.2-0.5,0.5
		C302.6,290.1,302.8,290.4,303.1,290.4"/>
	<path id="XMLID_127_" class="st0" d="M306.4,291.2c0.4,0,0.6-0.3,0.6-0.7c0-0.4-0.3-0.6-0.6-0.6s-0.7,0.3-0.7,0.6
		C305.7,290.9,306,291.2,306.4,291.2"/>
	<path id="XMLID_128_" class="st0" d="M308,288.9c0.4,0,0.7-0.2,0.7-0.6c0-0.3-0.3-0.5-0.7-0.5c-0.4,0-0.6,0.2-0.6,0.5
		C307.4,288.7,307.7,288.9,308,288.9"/>
	<path id="XMLID_146_" class="st0" d="M305.4,287.6c0.2,0,0.4-0.2,0.4-0.5c0-0.3-0.2-0.5-0.4-0.5c-0.2,0-0.4,0.2-0.4,0.5
		C305,287.4,305.2,287.6,305.4,287.6"/>
	<path id="XMLID_147_" class="st0" d="M309.7,282.9c0.2,0,0.4-0.2,0.4-0.4c0-0.2-0.2-0.4-0.4-0.4c-0.2,0-0.4,0.2-0.4,0.4
		C309.3,282.8,309.4,282.9,309.7,282.9"/>
	<path id="XMLID_148_" class="st0" d="M312.1,287.3c0.2,0,0.3-0.2,0.3-0.4c0-0.2-0.2-0.4-0.3-0.4s-0.3,0.2-0.3,0.4
		C311.8,287.1,312,287.3,312.1,287.3"/>
	<path id="XMLID_149_" class="st0" d="M310,290.8c0.4,0,0.7-0.3,0.7-0.6c0-0.4-0.3-0.7-0.7-0.7c-0.4,0-0.7,0.3-0.7,0.7
		C309.3,290.5,309.6,290.8,310,290.8"/>
	<path id="XMLID_150_" class="st0" d="M316.1,288.3c0.3,0,0.5-0.2,0.5-0.6c0-0.3-0.2-0.5-0.5-0.5c-0.3,0-0.6,0.2-0.6,0.5
		C315.6,288.1,315.8,288.3,316.1,288.3"/>
	<path id="XMLID_151_" class="st0" d="M314.6,285.6c0.2,0,0.4-0.2,0.4-0.4c0-0.2-0.2-0.4-0.4-0.4c-0.2,0-0.4,0.2-0.4,0.4
		C314.2,285.4,314.4,285.6,314.6,285.6"/>
	<path id="XMLID_152_" class="st0" d="M314,290.1c0.3,0,0.5-0.1,0.5-0.3c0-0.2-0.2-0.3-0.5-0.3c-0.3,0-0.6,0.1-0.6,0.3
		C313.4,290,313.7,290.1,314,290.1"/>
	<path id="XMLID_153_" class="st0" d="M314.8,293c0.4,0,0.6-0.2,0.6-0.6c0-0.3-0.3-0.5-0.6-0.5c-0.4,0-0.7,0.2-0.7,0.5
		C314.2,292.8,314.5,293,314.8,293"/>
	<path id="XMLID_154_" class="st0" d="M317.1,295.3c0.4,0,0.6-0.2,0.6-0.5c0-0.3-0.3-0.5-0.6-0.5c-0.4,0-0.7,0.2-0.7,0.5
		C316.5,295.1,316.8,295.3,317.1,295.3"/>
	<path id="XMLID_155_" class="st0" d="M318.2,293.7c0.2,0,0.4-0.2,0.4-0.5c0-0.3-0.2-0.5-0.4-0.5c-0.2,0-0.4,0.2-0.4,0.5
		C317.8,293.5,318,293.7,318.2,293.7"/>
	<path id="XMLID_156_" class="st0" d="M317,291.6c0.2,0,0.4-0.2,0.4-0.5c0-0.3-0.2-0.5-0.4-0.5c-0.2,0-0.4,0.2-0.4,0.5
		C316.6,291.3,316.8,291.6,317,291.6"/>
	<path id="XMLID_157_" class="st0" d="M319.5,291.2c0.2,0,0.3-0.2,0.3-0.4c0-0.2-0.1-0.4-0.3-0.4c-0.2,0-0.3,0.2-0.3,0.4
		C319.2,291,319.3,291.2,319.5,291.2"/>
	<path id="XMLID_158_" class="st0" d="M320.7,288.5c0.2,0,0.4-0.2,0.4-0.4c0-0.2-0.2-0.4-0.4-0.4c-0.2,0-0.4,0.2-0.4,0.4
		C320.3,288.3,320.5,288.5,320.7,288.5"/>
	<path id="XMLID_159_" class="st0" d="M325.1,290.1c0.2,0,0.3-0.2,0.3-0.5c0-0.3-0.1-0.5-0.3-0.5c-0.2,0-0.3,0.2-0.3,0.5
		C324.8,289.9,324.9,290.1,325.1,290.1"/>
	<path id="XMLID_160_" class="st0" d="M324,292.5c0.2,0,0.4-0.2,0.4-0.5c0-0.3-0.2-0.5-0.4-0.5c-0.2,0-0.4,0.2-0.4,0.5
		C323.6,292.3,323.8,292.5,324,292.5"/>
	<path id="XMLID_161_" class="st0" d="M321.6,292.4c0.4,0,0.7-0.2,0.7-0.5c0-0.3-0.3-0.5-0.7-0.5c-0.4,0-0.6,0.2-0.6,0.5
		C321,292.2,321.3,292.4,321.6,292.4"/>
	<path id="XMLID_162_" class="st0" d="M320.5,295c0.4,0,0.7-0.3,0.7-0.6c0-0.4-0.3-0.7-0.7-0.7c-0.4,0-0.6,0.3-0.6,0.7
		C319.8,294.8,320.1,295,320.5,295"/>
	<path id="XMLID_163_" class="st0" d="M322.9,294.7c0.3,0,0.5-0.3,0.5-0.6c0-0.4-0.2-0.7-0.5-0.7c-0.3,0-0.5,0.3-0.5,0.7
		C322.4,294.4,322.7,294.7,322.9,294.7"/>
	<path id="XMLID_164_" class="st0" d="M327.5,293c0.4,0,0.6-0.2,0.6-0.5c0-0.3-0.3-0.5-0.6-0.5c-0.4,0-0.7,0.2-0.7,0.5
		C326.8,292.7,327.1,293,327.5,293"/>
	<path id="XMLID_165_" class="st0" d="M329.6,289.1c0.2,0,0.4-0.2,0.4-0.4c0-0.2-0.2-0.4-0.4-0.4c-0.2,0-0.4,0.2-0.4,0.4
		C329.2,288.9,329.4,289.1,329.6,289.1"/>
	<path id="XMLID_166_" class="st0" d="M332.2,292.7c0.3,0,0.5-0.2,0.5-0.5c0-0.3-0.2-0.5-0.5-0.5c-0.3,0-0.6,0.2-0.6,0.5
		C331.6,292.5,331.8,292.7,332.2,292.7"/>
	<path id="XMLID_167_" class="st0" d="M334.1,296.2c0.3,0,0.5-0.2,0.5-0.4c0-0.2-0.2-0.4-0.5-0.4c-0.3,0-0.5,0.2-0.5,0.4
		C333.6,296,333.8,296.2,334.1,296.2"/>
	<path id="XMLID_168_" class="st0" d="M329.5,295.6c0.4,0,0.7-0.3,0.7-0.7c0-0.4-0.3-0.6-0.7-0.6c-0.4,0-0.6,0.3-0.6,0.6
		C328.9,295.3,329.2,295.6,329.5,295.6"/>
	<path id="XMLID_169_" class="st0" d="M336.4,285c0.4,0,0.8-0.2,0.8-0.5c0-0.3-0.3-0.5-0.8-0.5c-0.4,0-0.8,0.2-0.8,0.5
		C335.7,284.8,336,285,336.4,285"/>
	<path id="XMLID_170_" class="st0" d="M339.7,285c0.4,0,0.8-0.3,0.8-0.7c0-0.4-0.3-0.8-0.8-0.8c-0.4,0-0.8,0.3-0.8,0.8
		C339,284.7,339.3,285,339.7,285"/>
	<path id="XMLID_171_" class="st0" d="M342.8,282c0.4,0,0.6-0.3,0.6-0.7c0-0.4-0.3-0.6-0.6-0.6c-0.4,0-0.7,0.3-0.7,0.6
		C342.1,281.7,342.4,282,342.8,282"/>
	<path id="XMLID_172_" class="st0" d="M339.2,280.3c0.4,0,0.8-0.2,0.8-0.4c0-0.2-0.3-0.4-0.8-0.4c-0.4,0-0.8,0.2-0.8,0.4
		C338.4,280.1,338.8,280.3,339.2,280.3"/>
	<path id="XMLID_173_" class="st0" d="M348.2,284.8c0.4,0,0.7-0.3,0.7-0.6c0-0.4-0.3-0.7-0.7-0.7c-0.4,0-0.6,0.3-0.6,0.7
		C347.5,284.5,347.8,284.8,348.2,284.8"/>
	<path id="XMLID_174_" class="st0" d="M343.6,286c0.4,0,0.8-0.2,0.8-0.5c0-0.3-0.3-0.5-0.8-0.5c-0.4,0-0.8,0.2-0.8,0.5
		C342.8,285.7,343.1,286,343.6,286"/>
	<path id="XMLID_175_" class="st0" d="M346.8,288.4c0.4,0,0.7-0.2,0.7-0.5c0-0.3-0.3-0.5-0.7-0.5c-0.4,0-0.6,0.2-0.6,0.5
		C346.1,288.1,346.4,288.4,346.8,288.4"/>
	<path id="XMLID_176_" class="st0" d="M348.8,290.2c0.3,0,0.6-0.3,0.6-0.7c0-0.4-0.2-0.6-0.6-0.6c-0.3,0-0.5,0.3-0.5,0.6
		C348.2,289.9,348.5,290.2,348.8,290.2"/>
	<path id="XMLID_177_" class="st0" d="M347.1,291.9c0.4,0,0.7-0.2,0.7-0.5c0-0.3-0.3-0.5-0.7-0.5c-0.4,0-0.8,0.2-0.8,0.5
		C346.3,291.7,346.7,291.9,347.1,291.9"/>
	<path id="XMLID_178_" class="st0" d="M349.2,294c0.3,0,0.5-0.3,0.5-0.7c0-0.4-0.2-0.6-0.5-0.6c-0.3,0-0.5,0.3-0.5,0.6
		C348.7,293.7,348.9,294,349.2,294"/>
	<path id="XMLID_179_" class="st0" d="M344.5,289.7c0.4,0,0.6-0.3,0.6-0.7c0-0.3-0.3-0.6-0.6-0.6c-0.4,0-0.7,0.3-0.7,0.6
		C343.8,289.4,344.1,289.7,344.5,289.7"/>
	<path id="XMLID_180_" class="st0" d="M342.2,288.4c0.3,0,0.6-0.2,0.6-0.5c0-0.3-0.2-0.5-0.6-0.5c-0.3,0-0.5,0.2-0.5,0.5
		C341.6,288.1,341.9,288.4,342.2,288.4"/>
	<path id="XMLID_181_" class="st0" d="M338.7,298.1c0.3,0,0.5-0.2,0.5-0.5c0-0.3-0.2-0.5-0.5-0.5c-0.3,0-0.6,0.2-0.6,0.5
		C338.2,297.8,338.4,298.1,338.7,298.1"/>
	<path id="XMLID_182_" class="st0" d="M270.8,327.9c0.4,0,0.7-0.3,0.7-0.6c0-0.4-0.3-0.6-0.7-0.6c-0.4,0-0.6,0.3-0.6,0.6
		C270.2,327.6,270.5,327.9,270.8,327.9"/>
	<path id="XMLID_183_" class="st0" d="M268.7,328.7c0.3,0,0.5-0.2,0.5-0.5c0-0.3-0.2-0.5-0.5-0.5c-0.3,0-0.5,0.2-0.5,0.5
		C268.2,328.4,268.4,328.7,268.7,328.7"/>
	<path id="XMLID_184_" class="st0" d="M268.5,326.5c0.2,0,0.4-0.3,0.4-0.7c0-0.4-0.2-0.6-0.4-0.6c-0.2,0-0.4,0.3-0.4,0.6
		C268.1,326.2,268.3,326.5,268.5,326.5"/>
	<path id="XMLID_185_" class="st0" d="M270.2,326.2c0.4,0,0.8-0.2,0.8-0.4c0-0.2-0.3-0.4-0.8-0.4c-0.4,0-0.8,0.2-0.8,0.4
		C269.5,326,269.8,326.2,270.2,326.2"/>
	<path id="XMLID_186_" class="st0" d="M274.3,324.1c0.5,0,0.9-0.3,0.9-0.6c0-0.4-0.4-0.7-0.9-0.7c-0.5,0-0.9,0.3-0.9,0.7
		C273.4,323.8,273.8,324.1,274.3,324.1"/>
	<path id="XMLID_187_" class="st0" d="M275.2,326.7c0.4,0,0.8-0.2,0.8-0.5c0-0.3-0.3-0.5-0.8-0.5c-0.4,0-0.7,0.2-0.7,0.5
		C274.5,326.4,274.8,326.7,275.2,326.7"/>
	<path id="XMLID_188_" class="st0" d="M272.9,325.6c0.3,0,0.6-0.2,0.6-0.5c0-0.3-0.2-0.5-0.6-0.5c-0.3,0-0.5,0.2-0.5,0.5
		C272.4,325.4,272.6,325.6,272.9,325.6"/>
	<path id="XMLID_189_" class="st0" d="M267.1,325.5c0.4,0,0.6-0.3,0.6-0.6c0-0.4-0.3-0.7-0.6-0.7c-0.4,0-0.6,0.3-0.6,0.7
		C266.4,325.2,266.7,325.5,267.1,325.5"/>
	<path id="XMLID_190_" class="st0" d="M266.4,327.3c0.3,0,0.5-0.2,0.5-0.5c0-0.3-0.2-0.5-0.5-0.5c-0.3,0-0.5,0.2-0.5,0.5
		C265.9,327.1,266.1,327.3,266.4,327.3"/>
	<path id="XMLID_191_" class="st0" d="M266.8,329.9c0.2,0,0.3-0.2,0.3-0.4c0-0.2-0.1-0.4-0.3-0.4c-0.2,0-0.3,0.2-0.3,0.4
		C266.5,329.7,266.6,329.9,266.8,329.9"/>
	<path id="XMLID_192_" class="st0" d="M264.8,330.6c0.3,0,0.5-0.3,0.5-0.7c0-0.4-0.2-0.6-0.5-0.6c-0.3,0-0.5,0.3-0.5,0.6
		C264.2,330.3,264.5,330.6,264.8,330.6"/>
	<path id="XMLID_193_" class="st0" d="M262.9,331.1c0.4,0,0.7-0.4,0.7-0.9s-0.3-0.9-0.7-0.9c-0.4,0-0.6,0.4-0.6,0.9
		S262.5,331.1,262.9,331.1"/>
	<path id="XMLID_194_" class="st0" d="M261.9,332.3c0.3,0,0.6-0.2,0.6-0.4c0-0.2-0.2-0.4-0.6-0.4c-0.3,0-0.5,0.2-0.5,0.4
		C261.3,332.1,261.6,332.3,261.9,332.3"/>
	<path id="XMLID_195_" class="st0" d="M260,333.7c0.5,0,0.9-0.3,0.9-0.6c0-0.4-0.4-0.7-0.9-0.7c-0.5,0-0.9,0.3-0.9,0.7
		C259.2,333.4,259.6,333.7,260,333.7"/>
	<path id="XMLID_196_" class="st0" d="M261.3,334.3c0.2,0,0.4-0.2,0.4-0.5c0-0.3-0.2-0.5-0.4-0.5c-0.2,0-0.4,0.2-0.4,0.5
		C260.9,334.1,261.1,334.3,261.3,334.3"/>
	<path id="XMLID_197_" class="st0" d="M258.5,336c0.3,0,0.5-0.3,0.5-0.7c0-0.4-0.2-0.6-0.5-0.6c-0.3,0-0.5,0.3-0.5,0.6
		C258,335.7,258.2,336,258.5,336"/>
	<path id="XMLID_198_" class="st0" d="M256.7,337.8c0.4,0,0.8-0.3,0.8-0.6c0-0.4-0.3-0.7-0.8-0.7c-0.4,0-0.8,0.3-0.8,0.7
		C255.9,337.5,256.2,337.8,256.7,337.8"/>
	<path id="XMLID_199_" class="st0" d="M266.9,328.5c0.2,0,0.4-0.2,0.4-0.4c0-0.2-0.2-0.4-0.4-0.4c-0.2,0-0.4,0.2-0.4,0.4
		C266.4,328.3,266.6,328.5,266.9,328.5"/>
	<path id="XMLID_200_" class="st0" d="M273,326.7c0.3,0,0.5-0.2,0.5-0.4c0-0.2-0.2-0.4-0.5-0.4c-0.3,0-0.5,0.2-0.5,0.4
		C272.4,326.5,272.7,326.7,273,326.7"/>
	<path id="XMLID_201_" class="st0" d="M272.1,328.2c0.3,0,0.5-0.2,0.5-0.5c0-0.3-0.2-0.5-0.5-0.5c-0.3,0-0.6,0.2-0.6,0.5
		C271.5,328,271.8,328.2,272.1,328.2"/>
	<path id="XMLID_202_" class="st0" d="M274.1,325.1c0.2,0,0.4-0.2,0.4-0.4c0-0.2-0.2-0.4-0.4-0.4s-0.4,0.2-0.4,0.4
		C273.7,324.9,273.9,325.1,274.1,325.1"/>
	<path id="XMLID_203_" d="M170.7,360.7l2-3c0,0,4.7,3,5.8,3.7c2.9,1.8,5,0.1,6.2-1.9c1.3-2,1.1-1.6,1.6-2.5c1.3-2.1,1.9-3.8-1.3-5.8
		l-5.8-3.7l2.2-3.4c0,0,6.2,4,7.6,4.8c1.4,0.9,5.4,5.2,1.6,11.1c-0.3,0.5-0.9,1.3-1.6,2.4c-2,3.2-6.9,5.5-10.7,3"/>
	<path id="XMLID_204_" d="M180,343.3c0,0-8.5,9.8-9.3,10.6c-1.7,2-5.8,3-9,0.3c-2.5-2.1-2.1-1.8-3.3-2.8c-2.5-2.1-3.6-6.5-1.2-9.3
		c2.2-2.5,9.1-10.5,9.1-10.5l3.6,3.1l-5.4,6.2l5.8,5l-2.4,2.7l-5.8-4.9c0,0-1.1,1.3-1.4,1.6c-0.9,1-0.9,2,0.1,2.8
		c0.9,0.8,2.6,2.2,3.5,3c0.9,0.8,2.2,0.3,2.9-0.5c0.7-0.8,9.1-10.4,9.1-10.4"/>
	<path id="XMLID_205_" d="M153.8,322.4c3,3.4,3.6,4.1,4.3,5c1,1.2,0.8,3.4-0.4,4.4c-0.8,0.7-9.9,8.5-9.9,8.5l3.1,3.6
		c0,0,9.6-8.2,10.4-8.9c2-1.7,3-5.8,0.3-8.9c-2.1-2.4-2-2.3-5.1-5.9"/>
	<path id="XMLID_206_" d="M153.3,315.2c-6.2,4.4-16.2,11.5-16.2,11.5l2.8,3.8c0,0,10-7.1,16.2-11.5"/>
	<path id="XMLID_207_" d="M130.2,309.1c2.4,3.9,3.8,6.1,4.4,7.1c0.8,1.3,3,1.8,4.3,1c0.9-0.6,11.1-6.8,11.1-6.8l2.5,4
		c0,0-10.7,6.6-11.7,7.2c-2.2,1.4-6.4,1.1-8.7-2.4c-1.7-2.7-2.5-4-5.1-8.1"/>
	<path id="XMLID_208_" d="M139.9,316.9c-3.2-5.1-3.6-5.8-6.2-9.9l3-1.9c2.4,3.9,4.1,6.6,6.2,9.9"/>
	<path id="XMLID_211_" d="M125.2,297c1.2,3.2,2.2,4.1,7.6,2.1c5.6-2.1,5.4-3.7,4.3-6.6c-1.1-2.9-2.1-4.2-7.6-2.1
		C124.1,292.4,123.9,293.7,125.2,297 M134.5,303.8c-7.7,2.9-10.8,0.4-13.1-5.4c-2.2-5.9-1.5-9.8,6.2-12.7c7.8-2.9,11.1,0.4,13.1,5.4
		C142.6,296.2,142.3,300.9,134.5,303.8z"/>
	<path id="XMLID_212_" d="M115,271.3c1,4.7,1.9,9.1,2.5,12.3c1.1-0.2,19.4-3.9,19.4-3.9l-1-4.6c0,0-17.5,3.5-15.9,3.2
		c-0.2-1.1-0.2-1.2-1.1-5.6c-0.2-1.1,0.8-2.4,1.8-2.6c1-0.2,2.6,0.4,2.8,1.7l1,4.8l3.5-0.7c0,0-0.6-3.1-0.8-4
		c-0.2-0.9,0.3-2.6,2.3-3l5-1l-1-4.6c0,0-3.6,0.7-4.1,0.8c-2.4,0.5-4.7,1.7-4.1,4.2c-0.4-2.2-2.9-3.3-5.9-2.7
		C118.2,265.7,114.2,267.3,115,271.3"/>
	<path id="XMLID_213_" d="M119.4,257.4l0-0.3l1.1-0.4l12.6-8l-0.2-5.3l-19.9,0.8l0.2,4.7l13.1-0.5l0,0.3l-1.1,0.4l-11.7,7.3l0.2,6
		c1.1,0,19.8-0.8,19.8-0.8l-0.2-4.7"/>
	<path id="XMLID_214_" d="M133.8,236.8c-7.5-0.7-19.8-1.8-19.8-1.8l-0.4,4.7c0,0,12.3,1.1,19.8,1.7"/>
	<path id="XMLID_215_" d="M133.7,236.2c0,0-12.8-2.4-13.9-2.6c-2.6-0.5-5.5-3.5-4.8-7.6c0.6-3.2,0.5-2.8,0.8-4.2
		c0.6-3.2,3.8-6.4,7.5-5.7c3.3,0.6,13.7,2.6,13.7,2.6l-0.9,4.6l-8-1.5l-1.4,7.5l-3.6-0.7l1.4-7.4c0,0-1.7-0.3-2.2-0.4
		c-1.3-0.2-2.2,0.2-2.4,1.5c-0.2,1.2-0.6,3.4-0.8,4.5c-0.2,1.1,0.8,2.1,1.8,2.3c1,0.2,13.6,2.6,13.6,2.6"/>
	<path id="XMLID_216_" d="M159.3,176.4c0,0-9.5-8.9-10.3-9.6c-1.9-1.8-2.8-5.9,0.1-8.9c2.2-2.4,1.9-2,3-3.1c2.3-2.4,6.7-3.3,9.4-0.8
		c2.5,2.3,10.1,9.5,10.1,9.5l-3.2,3.4l-6-5.6l-5.3,5.5l-2.6-2.5l5.2-5.5c0,0-1.3-1.2-1.6-1.5c-1-0.9-1.9-1-2.9,0
		c-0.8,0.9-2.4,2.5-3.2,3.3c-0.8,0.9-0.4,2.2,0.3,2.9c0.8,0.7,10.1,9.4,10.1,9.4"/>
	<path id="XMLID_217_" d="M130.8,191.4c0.6-1.2,4.3-8.4,4.3-8.4l-3.2-1.6l-4.9,9.7c-1.8,3.6,0,6.8,2.3,7.9c2.3,1.2,6.2,1.7,8.2-2.1
		c0,0,2.1-4.1,2.9-5.6c0.6-1.2,1.8-1.3,2.7-0.9c0.9,0.4,1.4,1.4,0.8,2.6l-5,9.9l3.6,1.8c0,0,4.7-9.3,5.5-10.8
		c1.2-2.4,0.1-5.7-3.3-7.4c-3.7-1.9-6.3-0.3-8,3l-2,3.9c-0.8,1.6-1.9,2.2-3.3,1.5C129.8,194.1,130.2,192.5,130.8,191.4"/>
	<path id="XMLID_218_" d="M155.7,181.4c-6.2-4.3-16.3-11.4-16.3-11.4l-2.7,3.9c0,0,10.1,7,16.3,11.3"/>
	<polyline id="XMLID_219_" points="146.2,166.7 143.2,164.7 132.9,179.3 135.9,181.3 	"/>
	<path id="XMLID_220_" d="M180.2,156.9c-4.7-5.9-12.2-15.6-12.2-15.6l-3.7,2.9c0,0,7.6,9.6,12.2,15.6"/>
	<polyline id="XMLID_221_" points="175.4,140.1 173.2,137.2 159,148.2 161.2,151 	"/>
	<path id="XMLID_222_" d="M187.7,129.1l1.8,3.1c0,0-4.8,2.8-5.9,3.5c-2.9,1.7-2.3,4.4-1.1,6.4c1.2,2,1,1.7,1.5,2.5
		c1.3,2.1,2.6,3.4,5.8,1.5l5.9-3.5l2.1,3.5c0,0-6.3,3.7-7.8,4.5c-1.4,0.8-7.1,2.4-10.7-3.6c-0.3-0.5-0.8-1.4-1.5-2.5
		c-1.9-3.2-1.8-8.6,2.1-10.9"/>
	<polyline id="XMLID_223_" points="193.6,138.7 191.8,135.6 181.6,141.6 183.5,144.7 	"/>
	<path id="XMLID_224_" d="M373.1,205.8l0.1,0.2l-1,0.6l-9.9,11.1l1.7,5.1l18.9-6.2l-1.5-4.5l-12.4,4l-0.1-0.2l1-0.6l9.2-10.2
		l-1.9-5.7c-1,0.3-18.8,6.1-18.8,6.1l1.5,4.5"/>
	<path id="XMLID_227_" d="M381.9,230.6c-0.5-3.4-1.3-4.5-7-3.7c-5.9,0.9-6.1,2.5-5.7,5.5c0.5,3,1.1,4.5,7,3.7
		C382,235.4,382.4,234.1,381.9,230.6 M374.2,222c8.2-1.2,10.7,1.8,11.6,8.1c0.9,6.2-0.6,9.9-8.7,11.1c-8.3,1.2-10.8-2.7-11.6-8.1
		C364.7,227.7,366,223.2,374.2,222z"/>
	<path id="XMLID_228_" d="M386.6,256.3c0-4.8,0-9.3-0.1-12.5c-1.1,0-19.8,0.1-19.8,0.1l0,4.7c0,0,17.9-0.1,16.2-0.1
		c0,1.2,0,1.2,0,5.7c0,1.2-1.3,2.2-2.3,2.2c-1,0-2.4-0.9-2.4-2.2l0-4.9l-3.6,0c0,0,0,3.2,0,4.1c0,0.9-0.8,2.5-2.8,2.5l-5.1,0l0,4.7
		c0,0,3.7,0,4.2,0c2.4,0,4.9-0.7,4.9-3.3c0,2.2,2.2,3.8,5.2,3.8C382.4,261.2,386.6,260.3,386.6,256.3"/>
	<path id="XMLID_229_" d="M369.8,315.7c2.1-4.3,4.1-8.4,5.5-11.2c-1-0.5-17.8-8.6-17.8-8.6l-2.1,4.2c0,0,16.1,7.8,14.6,7
		c-0.5,1-0.5,1.1-2.5,5.2c-0.5,1-2.1,1.4-3,0.9c-0.9-0.5-1.8-1.9-1.2-3.1l2.2-4.4l-3.3-1.6c0,0-1.4,2.9-1.8,3.7
		c-0.4,0.8-1.9,1.9-3.7,1l-4.6-2.2l-2.1,4.2c0,0,3.3,1.6,3.8,1.8c2.2,1,4.7,1.5,5.9-0.8c-1,2,0.3,4.4,3,5.7
		C363.8,318.2,368,319.3,369.8,315.7"/>
	<path id="XMLID_230_" d="M346.2,316c6.3,4.2,16.6,11,16.6,11l2.6-3.9c0,0-10.3-6.8-16.6-11"/>
	<path id="XMLID_231_" d="M364.8,272c7.5,1.3,19.6,3.3,19.6,3.3l0.8-4.6c0,0-12.1-2.1-19.6-3.3"/>
	<polyline id="XMLID_232_" points="379.7,281.3 383.3,281.9 386.3,264.3 382.8,263.7 	"/>
	<path id="XMLID_233_" d="M358.4,294.2c7.2,2.3,19,5.9,19,5.9l1.3-4c0,0-11.7-3.6-19-5.9"/>
	<polyline id="XMLID_234_" points="367.2,294.1 370.6,295.1 373.7,285.3 370.3,284.2 	"/>
	<path id="XMLID_235_" d="M362,282.8c7.2,2.3,19,5.9,19,5.9l1.3-4c0,0-11.7-3.7-19-5.9"/>
	<path id="XMLID_236_" d="M315.8,369.3l-1.9-3.1c0,0,4.7-2.9,5.9-3.6c2.9-1.8,2.2-4.4,1-6.4c-1.2-2-1-1.7-1.5-2.5
		c-1.3-2.1-2.7-3.3-5.8-1.4l-5.9,3.6l-2.1-3.4c0,0,6.3-3.8,7.7-4.7c1.4-0.9,7.1-2.6,10.8,3.4c0.3,0.5,0.8,1.4,1.5,2.5
		c2,3.2,2,8.5-1.9,10.9"/>
	<polyline id="XMLID_237_" points="309.7,359.8 311.6,362.9 321.6,356.7 319.7,353.7 	"/>
	<path id="XMLID_238_" d="M332.9,358.3l-2.3-2.8c0,0,5.4-4.4,6.4-5.3c2.6-2.2,1.5-4.7,0.1-6.5c-1.5-1.8-1.3-1.5-1.9-2.3
		c-1.6-1.9-3.1-2.9-5.9-0.5l-5.3,4.4l-2.6-3.1c0,0,5.6-4.7,6.9-5.7c1.3-1.1,6.7-3.5,11.2,1.8c0.4,0.5,1,1.2,1.9,2.2
		c2.4,2.9,3.2,8.2-0.3,11.1"/>
	<polyline id="XMLID_239_" points="326.5,348.8 328.9,351.6 335.6,346.1 333.2,343.3 	"/>
	<path id="XMLID_240_" d="M320.1,343.1c4.9,5.8,7.8,9.3,7.8,9.3l3.7-3.1c0,0-2.9-3.5-7.8-9.3"/>
	<path id="XMLID_241_" d="M341.5,322.3l2.8,2.2c0,0-1.6,2-2.4,3.1c-2.1,2.7-0.5,4.9,1.3,6.3c1.9,1.4,1.4,1.1,2.2,1.7
		c2,1.5,4.5,2.2,6.8-0.7l4.6-5.9l2.8,2.2c0,0-4.5,5.8-5.5,7.1c-1,1.3-5.8,4.9-11.3,0.6c-0.5-0.4-1.2-1-2.3-1.8
		c-3-2.3-4.9-7.3-2-10.9"/>
	<path id="XMLID_242_" d="M360.6,329.9c-6-4.6-15.7-12.1-15.7-12.1l-3,3.8c0,0,9.6,7.4,15.7,12.1"/>
	<path id="XMLID_243_" d="M229.7,121.6l0.3,0l0.5,1.1l9.3,11.7l5.3-0.7l-2.8-19.6l-4.7,0.7l1.8,12.9l-0.3,0l-0.4-1.1l-8.4-10.8
		l-6,0.8c0.2,1.1,2.8,19.5,2.8,19.5l4.7-0.7"/>
	<path id="XMLID_244_" d="M311.1,128.4c-4.5-1.9-8.6-3.7-11.5-5c-0.4,1-7.9,18.1-7.9,18.1l4.4,1.9c0,0,7.2-16.3,6.5-14.8
		c1.1,0.5,1.1,0.5,5.3,2.3c1.1,0.5,1.5,2,1.1,3c-0.4,0.9-1.8,1.9-3,1.3l-4.5-1.9l-1.4,3.3c0,0,2.9,1.3,3.8,1.6
		c0.9,0.4,1.9,1.8,1.2,3.6l-2,4.6l4.3,1.9c0,0,1.5-3.3,1.7-3.8c1-2.2,1.3-4.8-1.1-5.8c2.1,0.9,4.4-0.4,5.6-3.2
		C313.9,134.2,314.8,130,311.1,128.4"/>
	<path id="XMLID_245_" d="M322.5,139.2c1.1,0.7,7.9,5.2,7.9,5.2l2-3l-9.1-6c-3.4-2.2-6.8-0.8-8.1,1.3c-1.4,2.2-2.4,6,1.1,8.3
		c0,0,3.9,2.6,5.3,3.5c1.1,0.7,1.1,1.9,0.6,2.7c-0.5,0.8-1.5,1.2-2.7,0.5l-9.3-6.1l-2.3,3.4c0,0,8.8,5.8,10.2,6.7
		c2.3,1.5,5.6,0.7,7.7-2.4c2.3-3.4,1-6.2-2.1-8.2l-3.6-2.4c-1.5-1-2-2.1-1.1-3.4C319.9,137.9,321.4,138.4,322.5,139.2"/>
	<path id="XMLID_246_" d="M327,162.7c4.9-5.7,13-15,13-15l-3.6-3.1c0,0-8,9.3-13,15"/>
	<path id="XMLID_247_" d="M251.7,133.9c0-7.5,0.1-19.8,0.1-19.8l-4.7,0c0,0,0,12.2-0.1,19.8"/>
	<path id="XMLID_248_" d="M335.7,171c5.5-5.2,14.3-13.7,14.3-13.7l-3.3-3.4c0,0-8.9,8.5-14.3,13.7"/>
	<polyline id="XMLID_249_" points="352,164.5 354.6,162 342.2,149.2 339.6,151.7 	"/>
	<path id="XMLID_250_" d="M221,134c-4.4,1.3-5.2,1.5-6.3,1.9c-1.5,0.4-3.4-0.7-3.9-2.2c-0.3-1-3.7-12.4-3.7-12.4l-4.5,1.3
		c0,0,3.6,12,3.9,13.1c0.8,2.5,4,5.1,8.1,3.9c3.1-0.9,2.9-0.8,7.5-2.2"/>
	<path id="XMLID_251_" d="M225.6,136.4c-2.1-7.2-5.6-19-5.6-19l-4.1,1.2c0,0,3.5,11.7,5.6,19"/>
	<path id="XMLID_252_" d="M295.5,121.9l-1,3.5c0,0-5.3-1.5-6.6-1.9c-3.3-0.9-4.8,1.4-5.4,3.6c-0.7,2.2-0.6,1.9-0.8,2.8
		c-0.7,2.4-0.7,4.2,2.9,5.2l6.6,1.9l-1.1,3.9c0,0-7.1-2-8.7-2.5c-1.6-0.5-6.7-3.5-4.7-10.2c0.2-0.6,0.4-1.5,0.8-2.8
		c1-3.6,5-7.2,9.4-6"/>
	<polyline id="XMLID_253_" points="292.6,132.8 293.6,129.4 282.2,126.1 281.2,129.6 	"/>
	<polyline id="XMLID_254_" points="265,134.8 260.3,134.2 254.8,113.7 259.5,114.2 	"/>
	<path id="XMLID_255_" d="M267.1,118.1c4.5,0.5,5.5,0.8,2.4,5.4l-6.4,11l4.7,0.5l6.6-11.4c3.8-6.1,2.5-7.5-7-8.6"/>
	<polyline id="XMLID_256_" points="349.5,183.4 346.7,179.6 356.3,163 359.1,166.8 	"/>
	<path id="XMLID_257_" d="M348.2,181l9.9-2.3c5.5-1,5-1.8,2.3-5.5l2.4-1.8c5.7,7.7,5.5,9.5-1.5,10.9l-12.9,3
		c-2.8,0.6-4.2,0.6-5.8-1.6c-1.6-2.2-5.1-6.8-5.1-6.8l2.8-2c0,0,2.5,3.4,3.5,4.8C345.4,181.7,346.1,181.4,348.2,181"/>
	<path id="XMLID_258_" d="M352.4,193.9l-1-1.8l3.6-2l2.1,3.7c0,0-2.2,1.3-2.8,1.6c-1,0.5-2.8,0.8-4.3-0.1"/>
	<path id="XMLID_259_" d="M218.5,361.8l6.3,1.6c0,0-3.1,11.9-5,19.2l-4-1c1.3-4.9,3-11.7,4.1-15.8l-2.3-0.6"/>
	<path id="XMLID_262_" d="M225.6,369.3c-0.6,4.1,1.4,6,3.2,6.2c1.4,0.2,9,1.2,9,1.2c-0.3,2.3-2,4.7-5.3,4.3
		c-1.3-0.2-6.8-0.9-6.8-0.9l-0.5,3.6l8.9,1.2c4.6,0.6,8-3.5,8.5-7.2c0.2-1.3,0.3-2.3,0.4-2.9c1-6.9-4.5-9.2-6.2-9.4
		c-1.7-0.2-4.8-0.7-4.8-0.7C229.3,364.4,226.1,366,225.6,369.3 M232.8,372.5c-1.6-0.2-2.7-0.4-2.4-2.2c0.2-1.8,1.6-2.3,2.8-2.1
		l1.8,0.2c3.7,0.5,3.8,2.4,3.4,4.8L232.8,372.5z"/>
	<path id="XMLID_265_" d="M273.7,375.2c-1.2,0.2-2,1.4-1.7,2.6c0.2,1.2,1.4,2,2.6,1.7l4.9-1c1.2-0.3,2-1.4,1.7-2.6
		c-0.2-1.2-1.4-2-2.6-1.7 M280.2,371.7c2.4-0.5,4.8,1.3,5.4,4c0.6,2.7-1,5.3-3.4,5.8l-9.7,2c-2.4,0.5-4.8-1.3-5.4-4
		c-0.6-2.7,1-5.3,3.4-5.8L280.2,371.7z"/>
	<path id="XMLID_268_" d="M277.9,370.8c1.2-0.2,2-1.4,1.7-2.6c-0.2-1.2-1.4-2-2.7-1.7l-4.9,1c-1.2,0.2-2,1.4-1.8,2.6
		c0.2,1.2,1.4,2,2.6,1.7 M270.6,374.5c-2.4,0.5-4.8-1.3-5.4-4c-0.6-2.7,1-5.3,3.4-5.8l9.7-2c2.4-0.5,4.8,1.3,5.4,4
		c0.6,2.7-0.9,5.3-3.4,5.8L270.6,374.5z"/>
	<path id="XMLID_269_" d="M262.4,366h-16.1v11.8c0,0,8.1,0,10.1,0c1.6,0,2,1.1,2,1.8c0,0.7-0.1,1.9-1.9,1.9c-1.8,0-10.3,0-10.3,0
		v4.3c0,0,10.9,0,12.3,0c3.8,0,5.1-3,5.1-6.3c0-2.5-1.1-5.6-5.6-5.6c-4.5,0-6.9,0-6.9,0v-3.8h11.3"/>
</g>
</svg>
