<svg id="visual" viewBox="0 0 900 600" width="900" height="600" xmlns="http://www.w3.org/2000/svg" xmlns:xlink="http://www.w3.org/1999/xlink" version="1.1"><path d="M0 55L225 13L450 163L675 109L900 67L900 0L675 0L450 0L225 0L0 0Z" fill="#4f4557"></path><path d="M0 79L225 313L450 421L675 361L900 265L900 65L675 107L450 161L225 11L0 53Z" fill="#433c4b"></path><path d="M0 277L225 451L450 511L675 403L900 451L900 263L675 359L450 419L225 311L0 77Z" fill="#38323f"></path><path d="M0 373L225 535L450 523L675 475L900 457L900 449L675 401L450 509L225 449L0 275Z" fill="#2e2a33"></path><path d="M0 427L225 589L450 559L675 523L900 469L900 455L675 473L450 521L225 533L0 371Z" fill="#232128"></path><path d="M0 601L225 601L450 601L675 601L900 601L900 467L675 521L450 557L225 587L0 425Z" fill="#1a191d"></path></svg>