<svg id="visual" viewBox="0 0 900 600" width="900" height="600" xmlns="http://www.w3.org/2000/svg" xmlns:xlink="http://www.w3.org/1999/xlink" version="1.1"><path d="M0 522L45 522L45 508L90 508L90 504L135 504L135 529L180 529L180 513L225 513L225 507L270 507L270 519L315 519L315 510L360 510L360 539L405 539L405 544L450 544L450 522L495 522L495 543L540 543L540 538L585 538L585 536L630 536L630 504L675 504L675 535L720 535L720 540L765 540L765 520L810 520L810 534L855 534L855 542L900 542L900 524L900 601L900 601L855 601L855 601L810 601L810 601L765 601L765 601L720 601L720 601L675 601L675 601L630 601L630 601L585 601L585 601L540 601L540 601L495 601L495 601L450 601L450 601L405 601L405 601L360 601L360 601L315 601L315 601L270 601L270 601L225 601L225 601L180 601L180 601L135 601L135 601L90 601L90 601L45 601L45 601L0 601Z" fill="#03dac5"></path><path d="M0 547L45 547L45 529L90 529L90 519L135 519L135 533L180 533L180 519L225 519L225 546L270 546L270 533L315 533L315 552L360 552L360 531L405 531L405 547L450 547L450 528L495 528L495 525L540 525L540 532L585 532L585 545L630 545L630 522L675 522L675 541L720 541L720 539L765 539L765 531L810 531L810 544L855 544L855 530L900 530L900 525L900 601L900 601L855 601L855 601L810 601L810 601L765 601L765 601L720 601L720 601L675 601L675 601L630 601L630 601L585 601L585 601L540 601L540 601L495 601L495 601L450 601L450 601L405 601L405 601L360 601L360 601L315 601L315 601L270 601L270 601L225 601L225 601L180 601L180 601L135 601L135 601L90 601L90 601L45 601L45 601L0 601Z" fill="#00d6d9"></path><path d="M0 537L45 537L45 528L90 528L90 529L135 529L135 528L180 528L180 540L225 540L225 522L270 522L270 541L315 541L315 554L360 554L360 554L405 554L405 540L450 540L450 543L495 543L495 542L540 542L540 532L585 532L585 539L630 539L630 535L675 535L675 530L720 530L720 524L765 524L765 523L810 523L810 548L855 548L855 549L900 549L900 544L900 601L900 601L855 601L855 601L810 601L810 601L765 601L765 601L720 601L720 601L675 601L675 601L630 601L630 601L585 601L585 601L540 601L540 601L495 601L495 601L450 601L450 601L405 601L405 601L360 601L360 601L315 601L315 601L270 601L270 601L225 601L225 601L180 601L180 601L135 601L135 601L90 601L90 601L45 601L45 601L0 601Z" fill="#00d0eb"></path><path d="M0 544L45 544L45 537L90 537L90 553L135 553L135 556L180 556L180 532L225 532L225 533L270 533L270 552L315 552L315 536L360 536L360 554L405 554L405 563L450 563L450 541L495 541L495 562L540 562L540 548L585 548L585 537L630 537L630 535L675 535L675 535L720 535L720 551L765 551L765 542L810 542L810 547L855 547L855 562L900 562L900 550L900 601L900 601L855 601L855 601L810 601L810 601L765 601L765 601L720 601L720 601L675 601L675 601L630 601L630 601L585 601L585 601L540 601L540 601L495 601L495 601L450 601L450 601L405 601L405 601L360 601L360 601L315 601L315 601L270 601L270 601L225 601L225 601L180 601L180 601L135 601L135 601L90 601L90 601L45 601L45 601L0 601Z" fill="#00c9f8"></path><path d="M0 569L45 569L45 557L90 557L90 544L135 544L135 563L180 563L180 556L225 556L225 543L270 543L270 546L315 546L315 546L360 546L360 548L405 548L405 567L450 567L450 552L495 552L495 554L540 554L540 567L585 567L585 568L630 568L630 548L675 548L675 554L720 554L720 545L765 545L765 562L810 562L810 550L855 550L855 561L900 561L900 553L900 601L900 601L855 601L855 601L810 601L810 601L765 601L765 601L720 601L720 601L675 601L675 601L630 601L630 601L585 601L585 601L540 601L540 601L495 601L495 601L450 601L450 601L405 601L405 601L360 601L360 601L315 601L315 601L270 601L270 601L225 601L225 601L180 601L180 601L135 601L135 601L90 601L90 601L45 601L45 601L0 601Z" fill="#00c1ff"></path><path d="M0 564L45 564L45 575L90 575L90 565L135 565L135 574L180 574L180 559L225 559L225 567L270 567L270 557L315 557L315 572L360 572L360 558L405 558L405 560L450 560L450 569L495 569L495 572L540 572L540 567L585 567L585 565L630 565L630 574L675 574L675 573L720 573L720 571L765 571L765 570L810 570L810 575L855 575L855 563L900 563L900 570L900 601L900 601L855 601L855 601L810 601L810 601L765 601L765 601L720 601L720 601L675 601L675 601L630 601L630 601L585 601L585 601L540 601L540 601L495 601L495 601L450 601L450 601L405 601L405 601L360 601L360 601L315 601L315 601L270 601L270 601L225 601L225 601L180 601L180 601L135 601L135 601L90 601L90 601L45 601L45 601L0 601Z" fill="#32b7ff"></path><path d="M0 573L45 573L45 571L90 571L90 577L135 577L135 575L180 575L180 565L225 565L225 575L270 575L270 571L315 571L315 576L360 576L360 579L405 579L405 567L450 567L450 563L495 563L495 568L540 568L540 562L585 562L585 569L630 569L630 574L675 574L675 573L720 573L720 576L765 576L765 575L810 575L810 567L855 567L855 573L900 573L900 575L900 601L900 601L855 601L855 601L810 601L810 601L765 601L765 601L720 601L720 601L675 601L675 601L630 601L630 601L585 601L585 601L540 601L540 601L495 601L495 601L450 601L450 601L405 601L405 601L360 601L360 601L315 601L315 601L270 601L270 601L225 601L225 601L180 601L180 601L135 601L135 601L90 601L90 601L45 601L45 601L0 601Z" fill="#63aaff"></path><path d="M0 585L45 585L45 575L90 575L90 586L135 586L135 573L180 573L180 573L225 573L225 572L270 572L270 574L315 574L315 583L360 583L360 580L405 580L405 577L450 577L450 579L495 579L495 574L540 574L540 574L585 574L585 573L630 573L630 578L675 578L675 582L720 582L720 573L765 573L765 583L810 583L810 576L855 576L855 580L900 580L900 585L900 601L900 601L855 601L855 601L810 601L810 601L765 601L765 601L720 601L720 601L675 601L675 601L630 601L630 601L585 601L585 601L540 601L540 601L495 601L495 601L450 601L450 601L405 601L405 601L360 601L360 601L315 601L315 601L270 601L270 601L225 601L225 601L180 601L180 601L135 601L135 601L90 601L90 601L45 601L45 601L0 601Z" fill="#919aff"></path><path d="M0 587L45 587L45 585L90 585L90 590L135 590L135 585L180 585L180 581L225 581L225 588L270 588L270 589L315 589L315 590L360 590L360 582L405 582L405 585L450 585L450 585L495 585L495 586L540 586L540 582L585 582L585 585L630 585L630 592L675 592L675 584L720 584L720 584L765 584L765 592L810 592L810 586L855 586L855 585L900 585L900 586L900 601L900 601L855 601L855 601L810 601L810 601L765 601L765 601L720 601L720 601L675 601L675 601L630 601L630 601L585 601L585 601L540 601L540 601L495 601L495 601L450 601L450 601L405 601L405 601L360 601L360 601L315 601L315 601L270 601L270 601L225 601L225 601L180 601L180 601L135 601L135 601L90 601L90 601L45 601L45 601L0 601Z" fill="#bb86fc"></path></svg>