<svg id="visual" viewBox="0 0 900 600" width="900" height="600" xmlns="http://www.w3.org/2000/svg" xmlns:xlink="http://www.w3.org/1999/xlink" version="1.1"><path d="M0 551L53 551L53 546L106 546L106 548L159 548L159 563L212 563L212 550L265 550L265 549L318 549L318 554L371 554L371 562L424 562L424 553L476 553L476 554L529 554L529 552L582 552L582 552L635 552L635 550L688 550L688 555L741 555L741 559L794 559L794 555L847 555L847 550L900 550L900 558L900 601L900 601L847 601L847 601L794 601L794 601L741 601L741 601L688 601L688 601L635 601L635 601L582 601L582 601L529 601L529 601L476 601L476 601L424 601L424 601L371 601L371 601L318 601L318 601L265 601L265 601L212 601L212 601L159 601L159 601L106 601L106 601L53 601L53 601L0 601Z" fill="#03dac5"></path><path d="M0 559L53 559L53 560L106 560L106 555L159 555L159 560L212 560L212 566L265 566L265 554L318 554L318 568L371 568L371 565L424 565L424 569L476 569L476 558L529 558L529 556L582 556L582 563L635 563L635 555L688 555L688 563L741 563L741 569L794 569L794 566L847 566L847 563L900 563L900 566L900 601L900 601L847 601L847 601L794 601L794 601L741 601L741 601L688 601L688 601L635 601L635 601L582 601L582 601L529 601L529 601L476 601L476 601L424 601L424 601L371 601L371 601L318 601L318 601L265 601L265 601L212 601L212 601L159 601L159 601L106 601L106 601L53 601L53 601L0 601Z" fill="#00c7eb"></path><path d="M0 572L53 572L53 572L106 572L106 574L159 574L159 569L212 569L212 566L265 566L265 562L318 562L318 574L371 574L371 569L424 569L424 576L476 576L476 576L529 576L529 574L582 574L582 561L635 561L635 571L688 571L688 572L741 572L741 573L794 573L794 567L847 567L847 571L900 571L900 566L900 601L900 601L847 601L847 601L794 601L794 601L741 601L741 601L688 601L688 601L635 601L635 601L582 601L582 601L529 601L529 601L476 601L476 601L424 601L424 601L371 601L371 601L318 601L318 601L265 601L265 601L212 601L212 601L159 601L159 601L106 601L106 601L53 601L53 601L0 601Z" fill="#00aeff"></path><path d="M0 577L53 577L53 573L106 573L106 570L159 570L159 577L212 577L212 573L265 573L265 579L318 579L318 573L371 573L371 582L424 582L424 569L476 569L476 574L529 574L529 582L582 582L582 578L635 578L635 581L688 581L688 579L741 579L741 578L794 578L794 575L847 575L847 578L900 578L900 576L900 601L900 601L847 601L847 601L794 601L794 601L741 601L741 601L688 601L688 601L635 601L635 601L582 601L582 601L529 601L529 601L476 601L476 601L424 601L424 601L371 601L371 601L318 601L318 601L265 601L265 601L212 601L212 601L159 601L159 601L106 601L106 601L53 601L53 601L0 601Z" fill="#008aff"></path><path d="M0 579L53 579L53 579L106 579L106 582L159 582L159 587L212 587L212 585L265 585L265 583L318 583L318 579L371 579L371 583L424 583L424 588L476 588L476 582L529 582L529 589L582 589L582 587L635 587L635 582L688 582L688 582L741 582L741 587L794 587L794 583L847 583L847 586L900 586L900 578L900 601L900 601L847 601L847 601L794 601L794 601L741 601L741 601L688 601L688 601L635 601L635 601L582 601L582 601L529 601L529 601L476 601L476 601L424 601L424 601L371 601L371 601L318 601L318 601L265 601L265 601L212 601L212 601L159 601L159 601L106 601L106 601L53 601L53 601L0 601Z" fill="#005efb"></path><path d="M0 588L53 588L53 591L106 591L106 586L159 586L159 593L212 593L212 588L265 588L265 588L318 588L318 588L371 588L371 587L424 587L424 588L476 588L476 595L529 595L529 593L582 593L582 593L635 593L635 587L688 587L688 595L741 595L741 595L794 595L794 586L847 586L847 586L900 586L900 591L900 601L900 601L847 601L847 601L794 601L794 601L741 601L741 601L688 601L688 601L635 601L635 601L582 601L582 601L529 601L529 601L476 601L476 601L424 601L424 601L371 601L371 601L318 601L318 601L265 601L265 601L212 601L212 601L159 601L159 601L106 601L106 601L53 601L53 601L0 601Z" fill="#6002e0"></path></svg>