<svg id="visual" viewBox="0 0 900 600" width="900" height="600" xmlns="http://www.w3.org/2000/svg" xmlns:xlink="http://www.w3.org/1999/xlink" version="1.1"><path d="M0 360L21.5 358.3C43 356.7 86 353.3 128.8 365C171.7 376.7 214.3 403.3 257.2 415.8C300 428.3 343 426.7 385.8 424.3C428.7 422 471.3 419 514.2 415.2C557 411.3 600 406.7 642.8 402C685.7 397.3 728.3 392.7 771.2 394.5C814 396.3 857 404.7 878.5 408.8L900 413L900 601L878.5 601C857 601 814 601 771.2 601C728.3 601 685.7 601 642.8 601C600 601 557 601 514.2 601C471.3 601 428.7 601 385.8 601C343 601 300 601 257.2 601C214.3 601 171.7 601 128.8 601C86 601 43 601 21.5 601L0 601Z" fill="#bb86fc"></path><path d="M0 463L21.5 465.2C43 467.3 86 471.7 128.8 466.2C171.7 460.7 214.3 445.3 257.2 435.2C300 425 343 420 385.8 425.7C428.7 431.3 471.3 447.7 514.2 450.7C557 453.7 600 443.3 642.8 431.7C685.7 420 728.3 407 771.2 407.8C814 408.7 857 423.3 878.5 430.7L900 438L900 601L878.5 601C857 601 814 601 771.2 601C728.3 601 685.7 601 642.8 601C600 601 557 601 514.2 601C471.3 601 428.7 601 385.8 601C343 601 300 601 257.2 601C214.3 601 171.7 601 128.8 601C86 601 43 601 21.5 601L0 601Z" fill="#63aaff"></path><path d="M0 480L21.5 481.8C43 483.7 86 487.3 128.8 484.3C171.7 481.3 214.3 471.7 257.2 464.7C300 457.7 343 453.3 385.8 452.7C428.7 452 471.3 455 514.2 457.5C557 460 600 462 642.8 461.3C685.7 460.7 728.3 457.3 771.2 454.8C814 452.3 857 450.7 878.5 449.8L900 449L900 601L878.5 601C857 601 814 601 771.2 601C728.3 601 685.7 601 642.8 601C600 601 557 601 514.2 601C471.3 601 428.7 601 385.8 601C343 601 300 601 257.2 601C214.3 601 171.7 601 128.8 601C86 601 43 601 21.5 601L0 601Z" fill="#00c1ff"></path><path d="M0 483L21.5 491.8C43 500.7 86 518.3 128.8 521.8C171.7 525.3 214.3 514.7 257.2 509.2C300 503.7 343 503.3 385.8 506.7C428.7 510 471.3 517 514.2 522.8C557 528.7 600 533.3 642.8 532.7C685.7 532 728.3 526 771.2 525.7C814 525.3 857 530.7 878.5 533.3L900 536L900 601L878.5 601C857 601 814 601 771.2 601C728.3 601 685.7 601 642.8 601C600 601 557 601 514.2 601C471.3 601 428.7 601 385.8 601C343 601 300 601 257.2 601C214.3 601 171.7 601 128.8 601C86 601 43 601 21.5 601L0 601Z" fill="#00d0eb"></path><path d="M0 553L21.5 556.3C43 559.7 86 566.3 128.8 566.7C171.7 567 214.3 561 257.2 557.2C300 553.3 343 551.7 385.8 548.7C428.7 545.7 471.3 541.3 514.2 537.3C557 533.3 600 529.7 642.8 532.8C685.7 536 728.3 546 771.2 552.5C814 559 857 562 878.5 563.5L900 565L900 601L878.5 601C857 601 814 601 771.2 601C728.3 601 685.7 601 642.8 601C600 601 557 601 514.2 601C471.3 601 428.7 601 385.8 601C343 601 300 601 257.2 601C214.3 601 171.7 601 128.8 601C86 601 43 601 21.5 601L0 601Z" fill="#03dac5"></path></svg>